<svg xmlns="http://www.w3.org/2000/svg" width="500" height="500">
   <g transform="translate(50, 200)">
      <line x1="0"
            x2="450"
            y1="-0"
            y2="-0"
            stroke="black"
            stroke-dasharray="5"/>
      <text x="-10" y="-0" text-anchor="end" font-size="smaller">0% </text>
      <line x1="0"
            x2="450"
            y1="-50"
            y2="-50"
            stroke="black"
            stroke-dasharray="5"/>
      <text x="-10" y="-50" text-anchor="end" font-size="smaller">50% </text>
      <line x1="0"
            x2="450"
            y1="-100"
            y2="-100"
            stroke="black"
            stroke-dasharray="5"/>
      <text x="-10" y="-100" text-anchor="end" font-size="smaller">100% </text>
      <text x="225" y="100" font-size="20" text-anchor="middle">KID CUDI</text>
      <text x="112.5" y="50" text-anchor="middle">Early</text>
      <text x="337.5" y="50" text-anchor="middle">Late</text>
      <rect x="0"
            width="50"
            y="-25.71428571428571"
            height="25.71428571428571"
            fill="#61D088"/>
      <text x="25" y="20" font-size="smaller" text-anchor="middle">positive</text>
      <rect x="225"
            width="50"
            y="-13.793103448275861"
            height="13.793103448275861"
            fill="#61D088"/>
      <text x="250" y="20" font-size="smaller" text-anchor="middle">positive</text>
      <rect x="75"
            width="50"
            y="-25.71428571428571"
            height="25.71428571428571"
            fill="#aeb8b0"/>
      <text x="100" y="20" font-size="smaller" text-anchor="middle">negative</text>
      <rect x="300"
            width="50"
            y="-20.689655172413794"
            height="20.689655172413794"
            fill="#aeb8b0"/>
      <text x="325" y="20" font-size="smaller" text-anchor="middle">negative</text>
      <rect x="150"
            width="50"
            y="-48.57142857142857"
            height="48.57142857142857"
            fill="#457E59"/>
      <text x="175" y="20" font-size="smaller" text-anchor="middle">neutral</text>
      <rect x="375"
            width="50"
            y="-65.51724137931035"
            height="65.51724137931035"
            fill="#457E59"/>
      <text x="400" y="20" font-size="smaller" text-anchor="middle">neutral</text>
      <line x1="0" x2="450" y1="0" y2="0" stroke="black"/>
      <line x1="0" x2="0" y1="0" y2="-100" stroke="black"/>
      <line x1="225" x2="225" y1="0" y2="-100" stroke="black"/>
   </g>
</svg>
