<svg xmlns="http://www.w3.org/2000/svg" width="600" height="600">
   <g transform="translate(150, 0)">
      <rect x="-0" y="30" height="20" width="0" fill="pink"/>
      <rect x="0" y="30" height="20" width="20" fill="lightblue"/>
      <text x="50" y="45">drugs</text>
      <rect x="-40" y="60" height="20" width="40" fill="pink"/>
      <rect x="0" y="60" height="20" width="20" fill="lightblue"/>
      <text x="50" y="75">family</text>
      <rect x="-20" y="90" height="20" width="20" fill="pink"/>
      <rect x="0" y="90" height="20" width="0" fill="lightblue"/>
      <text x="50" y="105">money</text>
      <rect x="-40" y="120" height="20" width="40" fill="pink"/>
      <rect x="0" y="120" height="20" width="0" fill="lightblue"/>
      <text x="50" y="135">poverty</text>
      <rect x="-40" y="150" height="20" width="40" fill="pink"/>
      <rect x="0" y="150" height="20" width="0" fill="lightblue"/>
      <text x="50" y="165">social_issues</text>
      <rect x="-10" y="180" height="20" width="10" fill="pink"/>
      <rect x="0" y="180" height="20" width="10" fill="lightblue"/>
      <text x="50" y="195">wealth</text>
   </g>
</svg>
