<svg xmlns="http://www.w3.org/2000/svg" width="1300" height="1000">
   <g transform="translate(200, 600)">
      <polyline fill="none"
                stroke="#aeb8b0"
                stroke-width="5"
                opacity="0.5"
                points="                                     30, -40                                     110, -10                                     190,-30                                     270,-70                                     350,-100                                     430,-50                                     510,-20                                     590,-10                                     695,-40                                     790,0                                     880,0"/>
      <polyline fill="none"
                stroke="#61D088"
                stroke-width="5"
                opacity="0.5"
                points="                                     30, -10                                     110, -100                                     190,0                                     270,-20                                     350,-20                                     430,-10                                     510,-10                                     590,-10                                     695,-10                                     790,0                                     880,0"/>
      <line x1="0" x2="866.6666666666666" y1="0" y2="0" stroke="black"/>
      <line x1="0" x2="0" y1="0" y2="-330" stroke="black"/>
      <text x="450"
            y="-400"
            text-anchor="middle"
            text-decoration="underline">J_COLE's Topic Progression Overtime</text>
      <text x="450" y="80" text-anchor="middle">Topics</text>
      <text x="200" y="50" transform=" translate(-120,10) rotate(270)"># Of
                        Mentions</text>
      <text x="30" y="30" text-anchor="middle">Drugs</text>
      <text x="110" y="30" text-anchor="middle">Death</text>
      <text x="190" y="30" text-anchor="middle">Family</text>
      <text x="270" y="30" text-anchor="middle">Religion</text>
      <text x="350" y="30" text-anchor="middle">Money</text>
      <text x="430" y="30" text-anchor="middle">Poverty</text>
      <text x="510" y="30" text-anchor="middle">Wealth</text>
      <text x="590" y="30" text-anchor="middle">Violence</text>
      <text x="695" y="30" text-anchor="middle">Social Issues</text>
      <text x="790" y="30" text-anchor="middle">Gangs</text>
      <text x="880" y="30" text-anchor="middle">Ambiguous</text>
      <text x="-15" y="5" text-anchor="middle">0</text>
      <text x="-15" y="-50" text-anchor="middle">5</text>
      <text x="-15" y="-100" text-anchor="middle">10</text>
      <text x="-15" y="-150" text-anchor="middle">15</text>
      <text x="-15" y="-200" text-anchor="middle">20</text>
      <text x="-15" y="-250" text-anchor="middle">25</text>
      <text x="-15" y="-300" text-anchor="middle">30</text>
      <text x="970" y="-355" text-anchor="middle" font-size="12">Later Album
                        -</text>
      <text x="970" y="-300" text-anchor="middle" font-size="12">Newer Album
                        -</text>
      <circle cx="1030" cy="-359" r="4" fill="#61D088" opacity="0.5"/>
      <circle cx="1030" cy="-303" r="4" fill="#aeb8b0" opacity="0.5"/>
   </g>
</svg>
