<svg xmlns="http://www.w3.org/2000/svg" width="600" height="600">
   <g transform="translate(150, 0)">
      <rect x="-10" y="30" height="20" width="10" fill="pink"/>
      <rect x="0" y="30" height="20" width="40" fill="lightblue"/>
      <text x="50" y="45">death</text>
      <rect x="-20" y="60" height="20" width="20" fill="pink"/>
      <rect x="0" y="60" height="20" width="30" fill="lightblue"/>
      <text x="50" y="75">drugs</text>
      <rect x="-0" y="90" height="20" width="0" fill="pink"/>
      <rect x="0" y="90" height="20" width="20" fill="lightblue"/>
      <text x="50" y="105">family</text>
      <rect x="-10" y="120" height="20" width="10" fill="pink"/>
      <rect x="0" y="120" height="20" width="80" fill="lightblue"/>
      <text x="50" y="135">money</text>
      <rect x="-10" y="150" height="20" width="10" fill="pink"/>
      <rect x="0" y="150" height="20" width="0" fill="lightblue"/>
      <text x="50" y="165">poverty</text>
      <rect x="-0" y="180" height="20" width="0" fill="pink"/>
      <rect x="0" y="180" height="20" width="60" fill="lightblue"/>
      <text x="50" y="195">religion</text>
      <rect x="-10" y="210" height="20" width="10" fill="pink"/>
      <rect x="0" y="210" height="20" width="10" fill="lightblue"/>
      <text x="50" y="225">social_issues</text>
      <rect x="-0" y="240" height="20" width="0" fill="pink"/>
      <rect x="0" y="240" height="20" width="70" fill="lightblue"/>
      <text x="50" y="255">violence</text>
      <rect x="-0" y="270" height="20" width="0" fill="pink"/>
      <rect x="0" y="270" height="20" width="40" fill="lightblue"/>
      <text x="50" y="285">wealth</text>
   </g>
</svg>
